<svg width="1062" height="1022" viewBox="0 0 1062 1022" fill="none" xmlns="http://www.w3.org/2000/svg">
<g clip-path="url(#clip0_2_501)">
<path d="M241.479 132.306C278.068 132.306 307.729 102.688 307.729 66.1529C307.729 29.6177 278.068 0 241.479 0C204.891 0 175.23 29.6177 175.23 66.1529C175.23 102.688 204.891 132.306 241.479 132.306Z" fill="#FFF383"/>
<path d="M316.029 487.958C290.14 487.958 265.102 478.726 245.426 461.925C238.862 456.314 231.869 446.561 224.64 432.937C220.027 424.162 217.443 414.465 217.079 404.561C216.714 394.656 218.579 384.796 222.534 375.706C218.721 379.58 214.504 383.034 209.954 386.01L207.654 387.538L207.521 384.784C207.434 382.993 207.39 381.208 207.39 379.479C207.39 369.287 215.11 358.945 211.549 349.525C196.544 309.82 148.949 270.361 217.928 208.912C224.309 203.227 215.785 191.862 215.785 183.261C215.785 98.9755 307.499 -27.4606 368.895 30.404C404.733 64.1802 479.398 88.1742 514.26 135.155L514.721 136.547L513.361 137.097C506.395 140.02 499.059 141.968 491.56 142.887C499.555 144.515 507.714 145.197 515.869 144.92L517.133 144.876L517.441 146.103C520.475 158.257 522.008 170.736 522.006 183.261L522 184.615C521.972 194.129 523.952 203.542 527.811 212.241C531.671 220.939 537.323 228.728 544.399 235.099C555.576 245.275 564.507 257.664 570.623 271.478C576.739 285.291 579.906 300.225 579.922 315.329C579.922 333.197 567.76 356.652 557.557 373.182C554.971 377.393 551.464 380.964 547.299 383.629C543.134 386.293 538.418 387.98 533.507 388.565C528.854 389.151 524.13 388.709 519.668 387.269C515.206 385.83 511.115 383.429 507.685 380.236C512.514 389.932 518.807 398.828 526.344 406.615L527.736 408.047L526.008 409.053C509.398 418.724 490.513 423.817 471.285 423.809L470.159 423.806C440.967 423.806 413.258 435.099 394.137 454.79C383.985 465.233 371.846 473.546 358.434 479.242C345.021 484.937 330.604 487.901 316.029 487.958Z" fill="#C4D8FF"/>
<path d="M277.719 657.888C277.249 657.888 276.795 657.718 276.44 657.41C276.086 657.102 275.854 656.677 275.788 656.212C275.705 655.63 267.574 597.078 274.876 519.261C281.62 447.395 303.275 343.882 368.147 258.869C368.303 258.665 368.497 258.494 368.719 258.365C368.941 258.236 369.186 258.152 369.44 258.118C369.694 258.084 369.953 258.1 370.201 258.165C370.449 258.231 370.682 258.344 370.886 258.5C371.09 258.655 371.261 258.849 371.39 259.07C371.519 259.292 371.603 259.537 371.638 259.79C371.672 260.044 371.656 260.303 371.59 260.55C371.525 260.798 371.411 261.03 371.255 261.234C306.944 345.513 285.463 448.266 278.767 519.625C271.507 596.989 279.574 655.084 279.656 655.662C279.695 655.939 279.674 656.221 279.595 656.489C279.516 656.757 279.38 657.005 279.196 657.216C279.012 657.427 278.786 657.596 278.531 657.712C278.276 657.828 277.999 657.888 277.719 657.888Z" fill="#85AFFF"/>
<path d="M336.953 376.633C336.54 376.633 336.138 376.503 335.804 376.261C335.47 376.019 335.221 375.678 335.093 375.286C334.966 374.894 334.966 374.472 335.093 374.08C335.22 373.688 335.469 373.346 335.803 373.104C354.287 360.61 374.256 350.46 395.249 342.886C428.047 330.897 477.921 320.027 529.265 336.344C529.51 336.422 529.736 336.547 529.933 336.712C530.129 336.877 530.29 337.079 530.408 337.307C530.526 337.534 530.598 337.783 530.619 338.038C530.641 338.293 530.612 338.55 530.534 338.795C530.457 339.039 530.331 339.265 530.166 339.461C530.001 339.657 529.798 339.818 529.57 339.936C529.342 340.053 529.093 340.125 528.838 340.147C528.582 340.168 528.325 340.139 528.08 340.062C477.788 324.08 428.818 334.77 396.593 346.551C375.937 353.994 356.289 363.974 338.1 376.26C337.767 376.503 337.365 376.633 336.953 376.633Z" fill="#85AFFF"/>
<path d="M246.193 146.217C246.163 145.806 246.264 145.397 246.482 145.046C246.7 144.696 247.023 144.424 247.405 144.269C247.787 144.113 248.209 144.083 248.61 144.181C249.01 144.28 249.369 144.503 249.635 144.818C263.446 162.328 275.023 181.485 284.099 201.848C298.438 233.649 312.887 282.538 300.286 334.85C300.226 335.099 300.117 335.334 299.966 335.541C299.816 335.749 299.625 335.924 299.406 336.058C299.188 336.192 298.945 336.282 298.691 336.322C298.437 336.362 298.179 336.352 297.929 336.292C297.679 336.232 297.444 336.123 297.237 335.973C297.029 335.822 296.853 335.632 296.719 335.413C296.585 335.194 296.496 334.951 296.456 334.698C296.416 334.445 296.427 334.187 296.487 333.937C308.829 282.698 294.624 234.696 280.536 203.45C271.614 183.414 260.23 164.563 246.648 147.333C246.382 147.019 246.223 146.628 246.193 146.217Z" fill="#85AFFF"/>
<path d="M722.745 777.042C588.366 777.042 485.22 769.979 413.629 741.66C239.256 672.686 180.14 644.043 179.562 643.762L180.739 641.357C181.315 641.638 240.372 670.249 414.616 739.172C517.968 780.055 688.018 776.409 923.381 771.36C967.547 770.414 1013.22 769.434 1061.86 768.654L1061.9 771.33C1013.27 772.111 967.601 773.089 923.438 774.037C850.221 775.607 783.308 777.042 722.745 777.042Z" fill="#85AFFF"/>
<path d="M155.633 952.643L153.738 950.751C218.845 885.738 243.935 860.882 249.251 855.624L57.4053 717.248L58.9745 715.079L253.386 855.305L252.259 856.416C252.044 856.629 229.821 878.563 155.633 952.643Z" fill="#85AFFF"/>
<path d="M252.233 1022.61L250.405 1020.66C256.411 1015.06 397.679 883.704 425.207 883.704H425.294L1058 890.137L1057.98 892.814L425.266 886.38H425.189C398.736 886.38 253.697 1021.25 252.233 1022.61Z" fill="#85AFFF"/>
<path d="M1044.69 817.258H882.185V819.935H1044.69V817.258Z" fill="#85AFFF"/>
<path d="M740.46 817.258H577.957V819.935H740.46V817.258Z" fill="#85AFFF"/>
<path d="M570.253 601.587H476.439V577.921H511.284C513.417 577.921 515.462 577.075 516.97 575.569C518.478 574.063 519.325 572.021 519.325 569.891V544.253C519.325 542.123 518.478 540.081 516.97 538.575C515.462 537.069 513.417 536.223 511.284 536.223H476.439V528.194C476.439 525.354 475.309 522.631 473.298 520.624C471.288 518.616 468.56 517.488 465.717 517.488C462.873 517.488 460.146 518.616 458.135 520.624C456.125 522.631 454.995 525.354 454.995 528.194V536.223H326.213C324.549 536.223 322.925 536.739 321.566 537.7L303.437 550.519C302.388 551.261 301.532 552.243 300.942 553.383C300.351 554.523 300.043 555.788 300.043 557.072C300.043 558.356 300.351 559.621 300.942 560.761C301.532 561.901 302.388 562.883 303.437 563.625L321.566 576.444C322.925 577.405 324.549 577.921 326.213 577.921H454.995V601.587H361.18C359.048 601.587 357.002 602.433 355.494 603.939C353.986 605.445 353.139 607.487 353.139 609.616V635.255C353.139 637.384 353.986 639.427 355.494 640.932C357.002 642.438 359.048 643.284 361.18 643.284H454.995V731.609C454.995 734.449 456.125 737.172 458.135 739.18C460.146 741.187 462.873 742.315 465.717 742.315C468.56 742.315 471.288 741.187 473.298 739.18C475.309 737.172 476.439 734.449 476.439 731.609V643.284H570.253C572.386 643.284 574.431 642.438 575.939 640.932C577.447 639.427 578.295 637.384 578.295 635.255V609.616C578.295 608.562 578.087 607.518 577.682 606.544C577.278 605.569 576.686 604.684 575.939 603.939C575.193 603.193 574.306 602.602 573.331 602.198C572.355 601.795 571.309 601.587 570.253 601.587Z" fill="#061D6F"/>
<path d="M412.109 558.305H345.098C343.854 558.305 342.661 557.811 341.781 556.933C340.901 556.054 340.407 554.863 340.407 553.621C340.407 552.378 340.901 551.187 341.781 550.309C342.661 549.43 343.854 548.937 345.098 548.937H412.109C413.353 548.937 414.546 549.43 415.425 550.309C416.305 551.187 416.799 552.378 416.799 553.621C416.799 554.863 416.305 556.054 415.425 556.933C414.546 557.811 413.353 558.305 412.109 558.305Z" fill="#FFE500"/>
<path d="M495.202 626.556H428.191C426.947 626.556 425.754 626.062 424.874 625.184C423.995 624.305 423.5 623.114 423.5 621.872C423.5 620.63 423.995 619.438 424.874 618.56C425.754 617.681 426.947 617.188 428.191 617.188H495.202C496.446 617.188 497.639 617.681 498.519 618.56C499.398 619.438 499.893 620.63 499.893 621.872C499.893 623.114 499.398 624.305 498.519 625.184C497.639 626.062 496.446 626.556 495.202 626.556Z" fill="white"/>
<path d="M173.551 735.413V711.747H208.396C210.529 711.747 212.574 710.901 214.082 709.395C215.59 707.889 216.437 705.847 216.437 703.717V678.079C216.437 675.949 215.59 673.907 214.082 672.401C212.574 670.895 210.529 670.049 208.396 670.049H173.551V662.386C173.587 659.623 172.575 656.949 170.719 654.9C168.863 652.851 166.299 651.578 163.543 651.337C162.078 651.239 160.609 651.443 159.226 651.936C157.843 652.429 156.576 653.2 155.504 654.201C154.432 655.203 153.578 656.414 152.993 657.758C152.409 659.103 152.107 660.554 152.107 662.02V670.049L7.88882 737.429C7.29905 737.704 6.77189 738.096 6.33991 738.582C5.90794 739.068 5.5803 739.637 5.37725 740.254C4.2413 743.71 1.85505 751.084 0.232009 756.899C-0.028653 757.843 -0.0635493 758.835 0.130148 759.795C0.323845 760.754 0.740721 761.655 1.34713 762.425C1.95353 763.194 2.7325 763.81 3.62123 764.224C4.50995 764.637 5.48355 764.836 6.46349 764.805C15.7576 764.52 21.8729 764.087 26.1171 763.969C26.9358 763.947 27.7419 763.762 28.489 763.428L152.107 711.747V777.11V865.068C152.072 867.831 153.083 870.505 154.939 872.555C156.795 874.604 159.359 875.877 162.115 876.118C163.58 876.215 165.05 876.011 166.432 875.519C167.815 875.026 169.082 874.255 170.154 873.253C171.226 872.252 172.08 871.041 172.665 869.696C173.249 868.351 173.551 866.901 173.551 865.435L173.551 735.413Z" fill="#061D6F"/>
<path d="M117.59 712.161L56.4421 739.532C55.3068 740.04 54.016 740.077 52.8534 739.635C51.6908 739.193 50.7518 738.308 50.2429 737.174C49.734 736.041 49.6969 734.752 50.1398 733.591C50.5827 732.43 51.4692 731.492 52.6044 730.984L113.752 703.612C114.887 703.104 116.178 703.067 117.341 703.509C118.503 703.952 119.442 704.837 119.951 705.971C120.46 707.104 120.497 708.393 120.054 709.554C119.611 710.715 118.725 711.652 117.59 712.161Z" fill="white"/>
<path d="M937.058 494.117L909.113 496.948C907.846 511.285 910.349 525.705 916.374 538.779L907.989 616.761L908.113 616.759C907.287 618.184 906.866 619.806 906.894 621.452C906.923 623.098 907.4 624.705 908.275 626.1C909.15 627.496 910.389 628.626 911.859 629.371C913.329 630.116 914.975 630.446 916.619 630.326C918.263 630.207 919.844 629.642 921.19 628.692C922.537 627.743 923.599 626.445 924.262 624.938C924.925 623.431 925.164 621.771 924.953 620.139C924.743 618.506 924.09 616.962 923.066 615.672L941.702 546.091L937.058 494.117Z" fill="#D0818C"/>
<path d="M851.107 836.426L839.234 834.382L838.07 798.594L858.998 790.692L851.107 836.426Z" fill="#D0818C"/>
<path d="M849.392 848.866L812.877 842.585L812.957 842.124C813.606 838.36 815.727 835.008 818.851 832.805C821.975 830.602 825.848 829.729 829.617 830.377L837.16 826.471L848.732 833.665L851.92 834.213L849.392 848.866Z" fill="#060B3B"/>
<path d="M970.233 811.648L959.95 817.917L930.833 781.296L946.011 772.042L970.233 811.648Z" fill="#D0818C"/>
<path d="M977.147 822.138L945.525 841.422L945.281 841.022C943.287 837.763 942.672 833.846 943.571 830.134C944.469 826.421 946.807 823.217 950.071 821.227L953.172 813.328L966.625 811.132L969.386 809.448L977.147 822.138Z" fill="#060B3B"/>
<path d="M855.168 618.774L848.043 645.808C848.043 645.808 846.098 657.012 847.106 658.018C848.824 660.447 849.691 663.374 849.573 666.346C849.121 669.087 844.511 667.97 846.816 672.051C849.121 676.131 841.997 738.227 841.997 738.227L835.615 814.581L858.399 817.258C861.67 815.345 862.15 813.17 860.219 810.769C860.219 810.769 864.892 805.387 862.316 803.293C859.739 801.199 864.394 800.323 864.647 794.98L879.353 742.545L884.22 730.824L882.948 724.709L886.645 717.689L888.423 699.275L893.244 747.668L938.273 799.3L960.443 788.231L961.744 785.402C962.279 784.238 962.37 782.919 962 781.693C961.63 780.467 960.825 779.418 959.735 778.743L952.214 771.757C952.858 768.879 942.626 761.664 942.626 761.664L925.494 729.464L936.131 639.269C936.131 639.269 952.214 617.857 930.908 598.482C922.179 590.545 855.168 618.774 855.168 618.774Z" fill="#060B3B"/>
<path d="M923.733 583.257C927.51 577.651 936.579 585.702 933.556 575.639C930.533 565.576 922.884 563.706 929.731 554.075L939.603 506.071C940.194 494.614 936.298 483.376 928.738 474.736L914.529 458.498L912.394 452.739L888.208 451.733L886.193 458.777C878.967 467.76 867.142 479.296 867.496 496.262C868.177 528.912 863.078 572.358 850.518 628.876C850.518 628.876 878.606 606.975 887.438 616.464C896.27 625.953 922.876 623.373 929.525 616.761C933.786 612.19 936.895 606.671 938.595 600.661C938.595 600.661 919.956 588.862 923.733 583.257Z" fill="#1A68FF"/>
<path d="M939.004 621.337L883.863 605.813L847.677 623.21C863.879 593.107 873.737 542.985 870.624 500.406C869.876 491.359 871.655 482.282 875.764 474.183C880.739 464.623 888.519 457.868 899.946 458.604L914.688 457.266L924.069 462.619C937.644 476.819 942.984 498.006 940.871 517.525C938.54 539.068 935.638 565.238 935.053 567.576C934.709 568.949 935.795 571.36 936.944 573.912C938.883 578.22 941.297 583.58 937.944 586.929C936.929 587.826 936.112 588.924 935.546 590.154C934.98 591.384 934.676 592.718 934.655 594.071C934.739 595.275 935.073 596.448 935.634 597.517C936.196 598.585 936.973 599.526 937.917 600.28C942.201 603.976 939.219 620.19 939.09 620.879L939.004 621.337Z" fill="#060B3B"/>
<path d="M910.874 514.716L883.169 510.096C878.164 523.594 876.775 538.162 879.138 552.36L850.477 625.382L850.598 625.413C849.425 626.57 848.59 628.024 848.184 629.619C847.777 631.214 847.813 632.89 848.289 634.466C848.765 636.042 849.662 637.459 850.884 638.564C852.106 639.669 853.606 640.421 855.224 640.738C856.841 641.055 858.515 640.925 860.065 640.364C861.614 639.802 862.981 638.829 864.018 637.55C865.055 636.27 865.724 634.733 865.951 633.102C866.179 631.472 865.957 629.811 865.309 628.297L901.642 566.075L910.874 514.716Z" fill="#D0818C"/>
<path d="M878.502 529.532L910.667 522.841L915.921 499.531C915.917 494.73 914.004 490.126 910.603 486.733C907.201 483.34 902.59 481.433 897.782 481.433C892.973 481.433 888.362 483.34 884.961 486.733C881.559 490.126 879.646 494.73 879.642 499.531C876.401 512.503 876.966 516.261 878.502 529.532Z" fill="#1A68FF"/>
<path d="M899.293 448.714C913.207 448.714 924.487 437.451 924.487 423.557C924.487 409.663 913.207 398.4 899.293 398.4C885.379 398.4 874.1 409.663 874.1 423.557C874.1 437.451 885.379 448.714 899.293 448.714Z" fill="#D0818C"/>
<path d="M928.518 404.438C926.557 400.935 918.759 405.417 916.341 402.21C914.425 399.418 911.987 397.021 909.16 395.152C906.816 393.792 904.16 393.061 901.449 393.031C898.738 393 896.066 393.672 893.693 394.98C891.954 396.219 890.092 397.275 888.137 398.133C886.102 398.782 883.445 398.292 882.564 396.348C883.185 398.046 883.807 399.744 884.428 401.442C882.78 402.204 880.905 402.321 879.174 401.77C877.444 401.219 875.983 400.04 875.081 398.465C874.971 400.223 874.862 401.982 874.753 403.74C874.607 403.259 874.294 402.845 873.87 402.575C873.445 402.304 872.938 402.195 872.44 402.266C871.813 402.455 871.247 402.802 870.795 403.274C870.343 403.747 870.021 404.327 869.86 404.96C868.269 409.634 872.076 415.088 876.956 415.871C879.975 416.356 883.011 415.388 886.04 414.978C889.07 414.568 892.577 414.91 894.491 417.291C896.37 419.629 896.006 422.961 896.115 425.957C896.224 428.954 897.536 432.548 900.511 432.948C902.553 433.222 904.505 431.8 906.562 431.922C909.497 432.096 911.38 435.465 911.064 438.385C910.747 441.305 908.909 443.804 907.135 446.146C910.067 446.378 913 446.61 915.932 446.841L914.795 447.156C921.969 446.805 927.505 439.854 928.362 432.733C929.219 425.613 932.022 410.698 928.518 404.438Z" fill="#060B3B"/>
</g>
<defs>
<clipPath id="clip0_2_501">
<rect width="1062" height="1022" fill="white"/>
</clipPath>
</defs>
</svg>
